<svg width="34" height="40" viewBox="0 0 34 40" fill="none" xmlns="http://www.w3.org/2000/svg">
<path d="M26.5927 7.24663C26.5932 7.25524 26.5932 7.26389 26.5927 7.2725L15.7573 5.59367V5.56661C15.8193 5.20989 15.9201 4.86018 16.058 4.52307L24.0633 5.77249C24.0156 4.79549 23.6782 3.85099 23.0898 3.0472C22.5014 2.2434 21.6858 1.61284 20.7365 1.22775C21.1789 1.19515 21.624 1.21292 22.062 1.2807C22.3947 1.3312 22.7219 1.40995 23.0397 1.51599C23.6787 2.08321 24.1908 2.76623 24.5457 3.5245C24.9006 4.28277 25.091 5.10084 25.1056 5.93014L26.661 6.16544C26.6779 6.5271 26.655 6.88946 26.5927 7.24663Z" fill="#FF8900"/>
<path d="M27.8778 6.1596C27.8844 6.53235 27.855 6.9049 27.7897 7.27271L26.6589 7.10009C26.6595 7.09137 26.6595 7.08262 26.6589 7.0739C26.8742 5.86151 26.6269 4.61708 25.9599 3.55728C25.2929 2.49748 24.2485 1.68944 23.0087 1.27386C22.6822 1.16655 22.346 1.08686 22.0042 1.03576C20.5294 0.811941 19.0196 1.14301 17.8062 1.95631C16.5928 2.76962 15.7749 3.99872 15.532 5.37388V5.40126L14.5454 5.25126C14.6114 4.88153 14.7118 4.51786 14.8453 4.16435C15.2928 2.99271 16.1039 1.9717 17.1752 1.23122C18.2466 0.490732 19.5299 0.0642373 20.8619 0.00598989C21.328 -0.0128221 21.795 0.0127048 22.2556 0.082179C23.8073 0.320889 25.22 1.05997 26.2474 2.17058C27.2749 3.28119 27.8518 4.69289 27.8778 6.1596Z" fill="#FF8900"/>
<path d="M13.2391 3.7L14.8392 3.91891C14.7111 4.22124 14.615 4.53227 14.5517 4.84847L8.48438 4.02174L9.45686 3.1838L12.2116 3.56052C12.717 2.37859 13.7048 1.38181 15.0027 0.743973C16.3006 0.106138 17.8263 -0.132273 19.3138 0.0703072C19.7553 0.130486 20.1882 0.228407 20.6056 0.362515C19.7935 0.392878 18.9959 0.552195 18.2557 0.831883C17.1704 0.835998 16.1116 1.11171 15.217 1.62319C14.3223 2.13468 13.6332 2.85829 13.2391 3.7Z" fill="#FF8900"/>
<path d="M33.9392 11.7931C33.9572 12.2378 33.8389 12.6753 33.6058 13.0265L32.8417 39.0956L31.1918 38.8186L28.9598 39.9999L29.0868 38.4658L31.1611 13.3197C30.9544 13.1076 30.7938 12.8408 30.6925 12.5414C30.5912 12.2419 30.5522 11.9184 30.5786 11.5977C30.6051 11.277 30.6964 10.9684 30.8448 10.6973C30.9932 10.4263 31.1945 10.2007 31.432 10.0392L31.6098 7.94241L27.8804 7.22196C27.9345 6.8382 27.9589 6.44948 27.9534 6.06055L33.7741 7.17848L33.6682 10.6565C33.8488 10.9974 33.9427 11.3917 33.9392 11.7931Z" fill="#FF8900"/>
<path d="M10.8633 13.2148V13.3336C10.5488 15.1799 10.2778 17.05 10.0503 18.9438C9.82275 20.8377 9.62385 22.604 9.45358 24.2428C9.0469 23.9653 8.6784 23.6198 8.36018 23.2175C7.99882 22.7591 7.72518 22.2186 7.55697 21.6308C7.35132 20.8945 7.25648 20.1232 7.27656 19.3502C7.28163 18.4675 7.42909 17.4372 7.71892 16.2594C7.93201 15.6469 8.17327 15.048 8.44169 14.4651C8.63304 14.0494 8.85102 13.6507 9.09382 13.2723C9.26697 12.9998 9.47051 12.7548 9.69921 12.5433C9.88032 12.3812 10.0777 12.2448 10.2872 12.137C10.4093 12.1052 10.5371 12.1229 10.6491 12.187C10.746 12.2684 10.8213 12.3792 10.8665 12.5071C10.9259 12.6571 10.9248 12.893 10.8633 13.2148Z" fill="#FF8900"/>
<path d="M31.3153 9.90342L31.5151 7.79705L27.2475 7.0733L26.1746 6.89236L15.6219 5.11168L14.6858 4.95445L8.67924 3.94119L6.87364 3.63672L1.58036 27.9523L0.541317 32.7291L0 35.1985L1.61669 35.4706L5.84308 36.1843L28.4827 40.0003L28.628 38.4592L31.0016 13.199C30.7651 12.986 30.5813 12.7179 30.4653 12.4171C30.3494 12.1163 30.3048 11.7913 30.3351 11.4691C30.3654 11.147 30.4698 10.8369 30.6396 10.5646C30.8094 10.2923 31.0398 10.0657 31.3116 9.90342H31.3153ZM29.6053 15.6934C29.4397 17.0151 29.1741 18.3214 28.8109 19.6004C28.4347 20.9656 28.0185 22.3137 27.5624 23.6447C27.1062 24.9758 26.6166 26.2236 26.0934 27.3883C25.6046 28.4888 25.0535 29.5588 24.4428 30.5927C23.9345 31.4677 23.3268 32.277 22.6324 33.0036C22.073 33.5968 21.4055 34.0705 20.6681 34.3974C20.0083 34.6839 19.2729 34.728 18.5852 34.5222C18.2631 34.5015 17.9578 34.3671 17.7206 34.1416C17.6878 34.1276 17.6542 34.1155 17.6201 34.1054C17.5917 34.0968 17.5644 34.0847 17.5389 34.0692C17.2152 33.7958 16.9626 33.4438 16.8038 33.0448C16.6161 32.5923 16.4843 32.1173 16.4115 31.6309C15.6195 32.7266 14.7912 33.5485 13.9265 34.0967C13.5305 34.362 13.0838 34.5366 12.6166 34.6085C12.1494 34.6804 11.6727 34.648 11.2187 34.5135C11.064 34.4964 10.9119 34.46 10.7658 34.4049C10.6094 34.3487 10.468 34.2555 10.3528 34.1329C10.328 34.1169 10.3011 34.1047 10.2729 34.0967C10.2445 34.0881 10.2173 34.0759 10.1918 34.0605C9.78973 33.7423 9.49303 33.2744 9.30654 32.6554C9.11402 32.0161 8.99215 31.3564 8.94324 30.6888C8.89028 30.0117 8.8838 29.3316 8.92386 28.6536C8.96504 27.986 9.01105 27.4369 9.06555 27.0089C8.35565 27.1107 7.63234 27.0288 6.96083 26.7706C6.32395 26.5181 5.76149 26.0998 5.3284 25.5564C4.84832 24.9411 4.48625 24.2373 4.26151 23.4825C3.98848 22.58 3.84926 21.6402 3.84856 20.6948C3.83518 19.811 3.91969 18.9284 4.10045 18.0643C4.27089 17.2344 4.51035 16.4211 4.81615 15.6335C5.09052 14.9223 5.42397 14.2367 5.8128 13.5846C6.1298 13.0448 6.49727 12.5382 6.90997 12.0722C7.22994 11.7462 7.58041 11.4536 7.95627 11.1987C8.37866 10.9001 8.83094 10.6491 9.30533 10.45C9.47261 10.3613 9.64781 10.2894 9.82848 10.2353L10.1312 10.1642C10.7366 10.0078 11.3665 9.97935 11.9828 10.0806C12.469 10.1631 12.9426 10.3112 13.3912 10.5211C13.8247 10.7369 14.2247 11.0178 14.578 11.3547C14.6313 11.4033 14.6822 11.4507 14.7306 11.4982C14.7766 11.5463 14.814 11.6025 14.8408 11.6641C14.9112 11.7792 14.962 11.9058 14.991 12.0385C14.9947 12.0721 14.9902 12.1061 14.9779 12.1375C14.9657 12.1689 14.946 12.1966 14.9207 12.2182C14.8612 12.2695 14.7931 12.3092 14.7197 12.3355C14.6421 12.3657 14.573 12.4155 14.5187 12.4802C14.4787 12.5276 14.4073 12.7585 14.3068 13.1703C14.2062 13.5821 14.0851 14.1236 13.9435 14.7925C13.8018 15.4613 13.6492 16.2188 13.4809 17.0673C13.3125 17.9158 13.1406 18.8143 12.9662 19.7477C12.7918 20.6811 12.6247 21.6195 12.4636 22.5716C12.3026 23.5237 12.1548 24.4171 12.0204 25.2757C12.1282 25.2906 12.225 25.3019 12.3135 25.3106C12.4019 25.3193 12.4781 25.3231 12.5448 25.3231H12.747C12.598 25.4179 12.46 25.5127 12.3328 25.6088C12.2057 25.7049 12.0749 25.791 11.9417 25.8709C11.9276 25.9338 11.917 25.9976 11.9102 26.0618C11.9041 26.1256 11.894 26.189 11.8799 26.2515C11.8799 26.3313 11.8666 26.526 11.84 26.8342C11.8133 27.1424 11.7855 27.4706 11.76 27.8113C11.7346 28.1519 11.7055 28.4714 11.6789 28.7646C11.6522 29.0579 11.6389 29.2214 11.6389 29.2526C11.6108 29.7012 11.6172 30.1514 11.6583 30.599C11.6987 30.9717 11.7931 31.2458 11.9417 31.4213C12.2226 31.7383 12.5254 31.8418 12.8463 31.7308C13.1672 31.6197 13.5063 31.3414 13.8623 30.8972C14.2819 30.3524 14.6497 29.7674 14.9607 29.1502C15.3361 28.4281 15.7047 27.622 16.0663 26.7319C16.3223 25.7794 16.5842 24.7233 16.8523 23.5636C17.0808 22.5653 17.3423 21.394 17.637 20.0497C17.9317 18.7053 18.2203 17.2403 18.5029 15.6547C18.9281 15.5299 19.375 15.5052 19.8108 15.5824C20.1585 15.6698 20.4756 15.8556 20.7263 16.1189C21.0024 16.3976 21.1469 16.886 21.1598 17.5839C21.1605 18.3302 21.0763 19.074 20.9091 19.8001C20.7267 20.6411 20.5216 21.5105 20.2939 22.4081C20.0663 23.3057 19.841 24.1879 19.6182 25.0548C19.4097 25.8205 19.2527 26.6002 19.1483 27.3883L19.089 28.1744C19.089 28.4452 19.0817 28.6598 19.0696 28.8183C19.0621 28.9393 19.0414 29.059 19.0079 29.1752V29.2463C18.9804 29.6948 18.984 30.1448 19.0188 30.5927C19.0511 30.9654 19.1415 31.2395 19.29 31.4151C19.5589 31.7171 19.8507 31.8202 20.1656 31.7245C20.4804 31.6289 20.8094 31.3793 21.1525 30.9758C21.5559 30.4747 21.9067 29.9309 22.1988 29.3536C22.5541 28.6773 22.9097 27.919 23.2657 27.0788C23.6218 26.2386 23.9738 25.3372 24.3217 24.3747C24.6721 23.4139 25.0011 22.441 25.3087 21.456C25.6575 20.3437 25.9425 19.3272 26.1637 18.4063C26.3849 17.4853 26.5528 16.6476 26.6674 15.8931C26.7742 15.2274 26.8465 14.5564 26.8842 13.8828C26.9109 13.2947 26.9177 12.7706 26.9048 12.3105C26.8507 11.2465 26.6828 10.4146 26.401 9.81482C26.6879 9.58478 27.035 9.44834 27.3977 9.423C27.7583 9.39988 28.1153 9.50906 28.4052 9.73121C28.7201 9.96165 28.995 10.3273 29.2299 10.8281C29.4648 11.3289 29.617 11.9823 29.6865 12.7884C29.7566 13.7571 29.7294 14.7306 29.6053 15.6934Z" fill="#FF8900"/>
</svg>
